<svg xmlns="http://www.w3.org/2000/svg" xmlns:xlink="http://www.w3.org/1999/xlink" xml:space="preserve" version="1.1" style="shape-rendering:geometricPrecision;text-rendering:geometricPrecision;image-rendering:optimizeQuality;" viewBox="0 0 317 377.5" x="0px" y="0px" fill-rule="evenodd" clip-rule="evenodd"><defs><style type="text/css">
   
    .fil0 {fill:black}
   
  </style></defs><g><path class="fil0" d="M196 196l10 0 2 -34 2 34 16 0 0 79 3 0 0 -29 12 0 0 -82 3 0 0 -6 5 0 0 -5 8 0 2 -33 1 33 8 0 0 5 5 0 0 6 4 0 0 111 4 0 0 -53 36 0 0 80c-106,0 -211,0 -317,0l0 -69 36 -11 0 45 4 0 0 -85 17 -9 4 -17 15 -8 0 127 4 0 0 -139 5 0 0 -3 -5 0 0 -11 36 0 0 11 -5 0 0 3 5 0 0 89 4 0 0 -126 12 0 0 -18 3 0 0 -54 3 0 0 -27 1 0 0 27 2 0 0 54 3 0 0 18 12 0 0 176 4 0 0 -134 6 0 17 32 13 0 0 23zm-45 69l2 0 0 4 -2 0 0 -4zm-17 0l3 0 0 4 -3 0 0 -4zm6 -7l2 0 0 4 -2 0 0 -4zm11 -6l2 0 0 4 -2 0 0 -4zm-28 0l3 0 0 4 -3 0 0 -4zm28 -15l2 0 0 4 -2 0 0 -4zm-17 0l3 0 0 4 -3 0 0 -4zm-11 0l3 0 0 4 -3 0 0 -4zm17 -6l2 0 0 3 -2 0 0 -3zm-17 0l3 0 0 3 -3 0 0 -3zm28 -7l2 0 0 4 -2 0 0 -4zm-22 0l2 0 0 4 -2 0 0 -4zm-104 50l2 0 0 4 -2 0 0 -4zm-22 0l2 0 0 4 -2 0 0 -4zm27 -7l3 0 0 4 -3 0 0 -4zm-11 0l3 0 0 4 -3 0 0 -4zm-11 0l3 0 0 4 -3 0 0 -4zm-5 -6l2 0 0 4 -2 0 0 -4zm27 -6l3 0 0 3 -3 0 0 -3zm-16 0l2 0 0 3 -2 0 0 -3zm11 -7l2 0 0 4 -2 0 0 -4zm-17 0l3 0 0 4 -3 0 0 -4zm-5 0l2 0 0 4 -2 0 0 -4zm22 -6l2 0 0 3 -2 0 0 -3zm-6 0l3 0 0 3 -3 0 0 -3zm-5 0l2 0 0 3 -2 0 0 -3zm-6 0l3 0 0 3 -3 0 0 -3zm22 -7l3 0 0 4 -3 0 0 -4zm-5 0l2 0 0 4 -2 0 0 -4zm-11 0l2 0 0 4 -2 0 0 -4zm-6 0l3 0 0 4 -3 0 0 -4zm-5 0l2 0 0 4 -2 0 0 -4zm297 42l2 0 0 3 -2 0 0 -3zm-17 0l3 0 0 3 -3 0 0 -3zm28 -7l2 0 0 4 -2 0 0 -4zm-17 0l3 0 0 4 -3 0 0 -4zm12 -6l2 0 0 3 -2 0 0 -3zm-23 0l3 0 0 3 -3 0 0 -3zm28 -7l2 0 0 4 -2 0 0 -4zm-28 0l3 0 0 4 -3 0 0 -4zm23 -6l2 0 0 3 -2 0 0 -3zm-12 0l3 0 0 3 -3 0 0 -3zm-5 0l2 0 0 3 -2 0 0 -3zm22 -7l2 0 0 4 -2 0 0 -4zm-11 0l2 0 0 4 -2 0 0 -4zm-6 0l3 0 0 4 -3 0 0 -4zm-11 0l3 0 0 4 -3 0 0 -4zm23 -6l2 0 0 4 -2 0 0 -4zm-6 0l2 0 0 4 -2 0 0 -4zm-11 0l2 0 0 4 -2 0 0 -4zm-6 0l3 0 0 4 -3 0 0 -4zm28 -7l2 0 0 4 -2 0 0 -4zm-5 0l2 0 0 4 -2 0 0 -4zm-6 0l2 0 0 4 -2 0 0 -4zm-6 0l3 0 0 4 -3 0 0 -4zm-5 0l2 0 0 4 -2 0 0 -4zm-6 0l3 0 0 4 -3 0 0 -4zm28 -6l2 0 0 4 -2 0 0 -4zm-5 0l2 0 0 4 -2 0 0 -4zm-12 0l3 0 0 4 -3 0 0 -4zm-5 0l2 0 0 4 -2 0 0 -4zm-6 0l3 0 0 4 -3 0 0 -4zm-105 50l3 0 0 3 -3 0 0 -3zm-11 0l3 0 0 3 -3 0 0 -3zm11 -7l3 0 0 4 -3 0 0 -4zm-5 -6l2 0 0 3 -2 0 0 -3zm5 -7l3 0 0 4 -3 0 0 -4zm-5 -6l2 0 0 4 -2 0 0 -4zm-6 0l3 0 0 4 -3 0 0 -4zm11 -7l3 0 0 4 -3 0 0 -4zm-11 0l3 0 0 4 -3 0 0 -4zm6 -6l2 0 0 4 -2 0 0 -4zm5 -6l3 0 0 3 -3 0 0 -3zm-5 0l2 0 0 3 -2 0 0 -3zm-6 0l3 0 0 3 -3 0 0 -3zm6 -7l2 0 0 4 -2 0 0 -4zm-6 0l3 0 0 4 -3 0 0 -4zm11 -6l3 0 0 3 -3 0 0 -3zm-11 0l3 0 0 3 -3 0 0 -3zm11 -7l3 0 0 4 -3 0 0 -4zm-5 0l2 0 0 4 -2 0 0 -4zm-6 0l3 0 0 4 -3 0 0 -4zm11 -6l3 0 0 3 -3 0 0 -3zm-5 0l2 0 0 3 -2 0 0 -3zm-6 0l3 0 0 3 -3 0 0 -3zm6 -7l2 0 0 4 -2 0 0 -4zm-6 0l3 0 0 4 -3 0 0 -4zm11 -6l3 0 0 4 -3 0 0 -4zm-5 0l2 0 0 4 -2 0 0 -4zm-6 0l3 0 0 4 -3 0 0 -4zm11 -7l3 0 0 4 -3 0 0 -4zm-11 0l3 0 0 4 -3 0 0 -4zm11 -6l3 0 0 4 -3 0 0 -4zm-5 0l2 0 0 4 -2 0 0 -4zm-6 0l3 0 0 4 -3 0 0 -4zm48 100l2 0 0 4 -2 0 0 -4zm-17 0l3 0 0 4 -3 0 0 -4zm11 -7l3 0 0 4 -3 0 0 -4zm-16 0l2 0 0 4 -2 0 0 -4zm27 -6l3 0 0 4 -3 0 0 -4zm-16 0l2 0 0 4 -2 0 0 -4zm11 -6l2 0 0 3 -2 0 0 -3zm-22 0l2 0 0 3 -2 0 0 -3zm22 -13l2 0 0 3 -2 0 0 -3zm-17 0l3 0 0 3 -3 0 0 -3zm22 -7l3 0 0 4 -3 0 0 -4zm-11 0l3 0 0 4 -3 0 0 -4zm-16 0l2 0 0 4 -2 0 0 -4zm27 -6l3 0 0 3 -3 0 0 -3zm-5 0l2 0 0 3 -2 0 0 -3zm-11 0l2 0 0 3 -2 0 0 -3zm-11 0l2 0 0 3 -2 0 0 -3zm22 -7l2 0 0 4 -2 0 0 -4zm-11 0l2 0 0 4 -2 0 0 -4zm-6 0l3 0 0 4 -3 0 0 -4zm22 -6l3 0 0 4 -3 0 0 -4zm-5 0l2 0 0 4 -2 0 0 -4zm-6 0l3 0 0 4 -3 0 0 -4zm-11 0l3 0 0 4 -3 0 0 -4zm-5 0l2 0 0 4 -2 0 0 -4zm27 -7l3 0 0 4 -3 0 0 -4zm-5 0l2 0 0 4 -2 0 0 -4zm-11 0l2 0 0 4 -2 0 0 -4zm-6 0l3 0 0 4 -3 0 0 -4zm-5 0l2 0 0 4 -2 0 0 -4zm27 -6l3 0 0 4 -3 0 0 -4zm-5 0l2 0 0 4 -2 0 0 -4zm-6 0l3 0 0 4 -3 0 0 -4zm-5 0l2 0 0 4 -2 0 0 -4zm-11 0l2 0 0 4 -2 0 0 -4zm27 -6l3 0 0 3 -3 0 0 -3zm-11 0l3 0 0 3 -3 0 0 -3zm-5 0l2 0 0 3 -2 0 0 -3zm-6 0l3 0 0 3 -3 0 0 -3zm-5 0l2 0 0 3 -2 0 0 -3zm78 76l3 0 0 4 -3 0 0 -4zm-16 0l2 0 0 4 -2 0 0 -4zm-11 0l2 0 0 4 -2 0 0 -4zm22 -6l2 0 0 3 -2 0 0 -3zm-17 0l2 0 0 3 -2 0 0 -3zm22 -7l3 0 0 4 -3 0 0 -4zm-16 0l2 0 0 4 -2 0 0 -4zm-11 0l2 0 0 4 -2 0 0 -4zm16 -6l2 0 0 4 -2 0 0 -4zm-16 0l2 0 0 4 -2 0 0 -4zm27 -7l3 0 0 4 -3 0 0 -4zm-16 0l2 0 0 4 -2 0 0 -4zm-11 0l2 0 0 4 -2 0 0 -4zm22 -6l2 0 0 4 -2 0 0 -4zm-11 0l2 0 0 4 -2 0 0 -4zm-6 0l2 0 0 4 -2 0 0 -4zm22 -6l3 0 0 3 -3 0 0 -3zm-27 0l2 0 0 3 -2 0 0 -3zm27 -7l3 0 0 4 -3 0 0 -4zm-5 0l2 0 0 4 -2 0 0 -4zm-11 0l2 0 0 4 -2 0 0 -4zm-11 0l2 0 0 4 -2 0 0 -4zm22 -6l2 0 0 3 -2 0 0 -3zm-6 0l2 0 0 3 -2 0 0 -3zm-5 0l2 0 0 3 -2 0 0 -3zm-6 0l2 0 0 3 -2 0 0 -3zm22 -7l3 0 0 4 -3 0 0 -4zm-22 0l2 0 0 4 -2 0 0 -4zm-5 0l2 0 0 4 -2 0 0 -4zm27 -6l3 0 0 3 -3 0 0 -3zm-5 0l2 0 0 3 -2 0 0 -3zm-6 0l2 0 0 3 -2 0 0 -3zm-5 0l2 0 0 3 -2 0 0 -3zm-6 0l2 0 0 3 -2 0 0 -3zm-5 0l2 0 0 3 -2 0 0 -3zm27 -7l3 0 0 4 -3 0 0 -4zm-11 0l2 0 0 4 -2 0 0 -4zm-5 0l2 0 0 4 -2 0 0 -4zm16 -6l3 0 0 4 -3 0 0 -4zm-5 0l2 0 0 4 -2 0 0 -4zm-6 0l2 0 0 4 -2 0 0 -4zm-5 0l2 0 0 4 -2 0 0 -4zm-6 0l2 0 0 4 -2 0 0 -4zm-5 0l2 0 0 4 -2 0 0 -4zm22 -7l2 0 0 4 -2 0 0 -4zm-6 0l2 0 0 4 -2 0 0 -4zm-5 0l2 0 0 4 -2 0 0 -4zm-6 0l2 0 0 4 -2 0 0 -4zm22 -6l3 0 0 4 -3 0 0 -4zm-11 0l2 0 0 4 -2 0 0 -4zm-5 0l2 0 0 4 -2 0 0 -4zm-6 0l2 0 0 4 -2 0 0 -4zm-5 0l2 0 0 4 -2 0 0 -4zm27 -6l3 0 0 3 -3 0 0 -3zm-5 0l2 0 0 3 -2 0 0 -3zm-6 0l2 0 0 3 -2 0 0 -3zm-5 0l2 0 0 3 -2 0 0 -3zm-6 0l2 0 0 3 -2 0 0 -3zm-5 0l2 0 0 3 -2 0 0 -3zm27 -7l3 0 0 4 -3 0 0 -4zm-5 0l2 0 0 4 -2 0 0 -4zm-11 0l2 0 0 4 -2 0 0 -4zm-11 0l2 0 0 4 -2 0 0 -4zm22 -6l2 0 0 3 -2 0 0 -3zm-6 0l2 0 0 3 -2 0 0 -3zm-5 0l2 0 0 3 -2 0 0 -3zm-6 0l2 0 0 3 -2 0 0 -3zm-5 0l2 0 0 3 -2 0 0 -3zm-196 107l3 0 0 4 -3 0 0 -4zm6 -7l2 0 0 4 -2 0 0 -4zm17 -6l2 0 0 4 -2 0 0 -4zm-28 0l2 0 0 4 -2 0 0 -4zm11 -6l2 0 0 3 -2 0 0 -3zm17 -7l2 0 0 4 -2 0 0 -4zm-28 0l2 0 0 4 -2 0 0 -4zm22 -6l2 0 0 3 -2 0 0 -3zm-17 0l3 0 0 3 -3 0 0 -3zm23 -7l2 0 0 4 -2 0 0 -4zm-11 0l2 0 0 4 -2 0 0 -4zm-6 0l2 0 0 4 -2 0 0 -4zm-11 0l2 0 0 4 -2 0 0 -4zm22 -6l2 0 0 3 -2 0 0 -3zm-11 0l2 0 0 3 -2 0 0 -3zm-11 0l2 0 0 3 -2 0 0 -3zm28 -7l2 0 0 4 -2 0 0 -4zm-11 0l2 0 0 4 -2 0 0 -4zm-6 0l2 0 0 4 -2 0 0 -4zm-6 0l3 0 0 4 -3 0 0 -4zm23 -6l2 0 0 4 -2 0 0 -4zm-11 0l2 0 0 4 -2 0 0 -4zm-6 0l2 0 0 4 -2 0 0 -4zm-11 0l2 0 0 4 -2 0 0 -4zm28 -7l2 0 0 4 -2 0 0 -4zm-6 0l2 0 0 4 -2 0 0 -4zm-11 0l2 0 0 4 -2 0 0 -4zm-6 0l3 0 0 4 -3 0 0 -4zm17 -6l2 0 0 4 -2 0 0 -4zm-5 0l2 0 0 4 -2 0 0 -4zm-12 0l3 0 0 4 -3 0 0 -4zm-5 0l2 0 0 4 -2 0 0 -4zm28 -7l2 0 0 4 -2 0 0 -4zm-6 0l2 0 0 4 -2 0 0 -4zm-11 0l2 0 0 4 -2 0 0 -4zm-6 0l3 0 0 4 -3 0 0 -4zm23 -6l2 0 0 4 -2 0 0 -4zm-11 0l2 0 0 4 -2 0 0 -4zm-6 0l2 0 0 4 -2 0 0 -4zm-11 0l2 0 0 4 -2 0 0 -4zm28 -6l2 0 0 3 -2 0 0 -3zm-11 0l2 0 0 3 -2 0 0 -3zm-6 0l2 0 0 3 -2 0 0 -3zm-11 0l2 0 0 3 -2 0 0 -3zm68 71l2 0 0 3 -2 0 0 -3zm-17 0l3 0 0 3 -3 0 0 -3zm-11 0l3 0 0 3 -3 0 0 -3zm23 -7l2 0 0 4 -2 0 0 -4zm-6 -6l2 0 0 3 -2 0 0 -3zm-17 0l3 0 0 3 -3 0 0 -3zm28 -7l2 0 0 4 -2 0 0 -4zm-5 0l2 0 0 4 -2 0 0 -4zm-6 -6l2 0 0 4 -2 0 0 -4zm-11 0l2 0 0 4 -2 0 0 -4zm-6 0l3 0 0 4 -3 0 0 -4zm17 -7l2 0 0 4 -2 0 0 -4zm11 -6l2 0 0 4 -2 0 0 -4zm-5 0l2 0 0 4 -2 0 0 -4zm-17 0l2 0 0 4 -2 0 0 -4zm11 -6l2 0 0 3 -2 0 0 -3zm6 -7l2 0 0 4 -2 0 0 -4zm-12 0l3 0 0 4 -3 0 0 -4zm-11 0l3 0 0 4 -3 0 0 -4zm28 -6l2 0 0 3 -2 0 0 -3zm-22 0l2 0 0 3 -2 0 0 -3zm-6 0l3 0 0 3 -3 0 0 -3zm17 -7l2 0 0 4 -2 0 0 -4zm-6 0l3 0 0 4 -3 0 0 -4zm-5 0l2 0 0 4 -2 0 0 -4zm22 -6l2 0 0 3 -2 0 0 -3zm-5 0l2 0 0 3 -2 0 0 -3zm-17 0l2 0 0 3 -2 0 0 -3zm-6 0l3 0 0 3 -3 0 0 -3zm11 -7l3 0 0 4 -3 0 0 -4zm-11 0l3 0 0 4 -3 0 0 -4zm28 -6l2 0 0 4 -2 0 0 -4zm-11 0l2 0 0 4 -2 0 0 -4zm-6 0l3 0 0 4 -3 0 0 -4zm-11 0l3 0 0 4 -3 0 0 -4zm28 -7l2 0 0 4 -2 0 0 -4zm-5 0l2 0 0 4 -2 0 0 -4zm-17 0l2 0 0 4 -2 0 0 -4zm22 -6l2 0 0 4 -2 0 0 -4zm-5 0l2 0 0 4 -2 0 0 -4zm-12 0l3 0 0 4 -3 0 0 -4zm-5 0l2 0 0 4 -2 0 0 -4zm-6 0l3 0 0 4 -3 0 0 -4zm28 -6l2 0 0 3 -2 0 0 -3zm-11 0l2 0 0 3 -2 0 0 -3zm-6 0l3 0 0 3 -3 0 0 -3zm-5 0l2 0 0 3 -2 0 0 -3zm-6 0l3 0 0 3 -3 0 0 -3zm28 -7l2 0 0 4 -2 0 0 -4zm-5 0l2 0 0 4 -2 0 0 -4zm-6 0l2 0 0 4 -2 0 0 -4zm-6 0l3 0 0 4 -3 0 0 -4zm-11 0l3 0 0 4 -3 0 0 -4zm28 -6l2 0 0 3 -2 0 0 -3zm-11 0l2 0 0 3 -2 0 0 -3zm-6 0l3 0 0 3 -3 0 0 -3zm-5 0l2 0 0 3 -2 0 0 -3zm-6 0l3 0 0 3 -3 0 0 -3zm62 78l3 0 0 4 -3 0 0 -4zm-11 0l3 0 0 4 -3 0 0 -4zm-11 0l3 0 0 4 -3 0 0 -4zm28 -6l2 0 0 3 -2 0 0 -3zm-11 0l2 0 0 3 -2 0 0 -3zm-11 0l2 0 0 3 -2 0 0 -3zm-6 0l3 0 0 3 -3 0 0 -3zm22 -7l3 0 0 4 -3 0 0 -4zm-5 -6l2 0 0 3 -2 0 0 -3zm-11 0l2 0 0 3 -2 0 0 -3zm-6 0l3 0 0 3 -3 0 0 -3zm28 -7l2 0 0 4 -2 0 0 -4zm-11 0l2 0 0 4 -2 0 0 -4zm-11 0l2 0 0 4 -2 0 0 -4zm16 -6l3 0 0 4 -3 0 0 -4zm-11 0l3 0 0 4 -3 0 0 -4zm-5 0l2 0 0 4 -2 0 0 -4zm-6 0l3 0 0 4 -3 0 0 -4zm28 -7l2 0 0 4 -2 0 0 -4zm-6 0l3 0 0 4 -3 0 0 -4zm-11 0l3 0 0 4 -3 0 0 -4zm-11 0l3 0 0 4 -3 0 0 -4zm28 -6l2 0 0 4 -2 0 0 -4zm-11 0l2 0 0 4 -2 0 0 -4zm-6 0l3 0 0 4 -3 0 0 -4zm-5 0l2 0 0 4 -2 0 0 -4zm16 -6l3 0 0 3 -3 0 0 -3zm-11 0l3 0 0 3 -3 0 0 -3zm-11 0l3 0 0 3 -3 0 0 -3zm28 -7l2 0 0 4 -2 0 0 -4zm-6 0l3 0 0 4 -3 0 0 -4zm-5 0l2 0 0 4 -2 0 0 -4zm-6 0l3 0 0 4 -3 0 0 -4zm-5 0l2 0 0 4 -2 0 0 -4zm-6 0l3 0 0 4 -3 0 0 -4zm17 -6l2 0 0 3 -2 0 0 -3zm-6 0l3 0 0 3 -3 0 0 -3zm-5 0l2 0 0 3 -2 0 0 -3zm-6 0l3 0 0 3 -3 0 0 -3zm28 -7l2 0 0 4 -2 0 0 -4zm-6 0l3 0 0 4 -3 0 0 -4zm-5 0l2 0 0 4 -2 0 0 -4zm-11 0l2 0 0 4 -2 0 0 -4zm22 -6l2 0 0 3 -2 0 0 -3zm-11 0l2 0 0 3 -2 0 0 -3zm-6 0l3 0 0 3 -3 0 0 -3zm-5 0l2 0 0 3 -2 0 0 -3zm-6 0l3 0 0 3 -3 0 0 -3zm22 -7l3 0 0 4 -3 0 0 -4zm-5 0l2 0 0 4 -2 0 0 -4zm-6 0l3 0 0 4 -3 0 0 -4zm-11 0l3 0 0 4 -3 0 0 -4zm28 -6l2 0 0 4 -2 0 0 -4zm-6 0l3 0 0 4 -3 0 0 -4zm-11 0l3 0 0 4 -3 0 0 -4zm-5 0l2 0 0 4 -2 0 0 -4zm-6 0l3 0 0 4 -3 0 0 -4zm28 -7l2 0 0 4 -2 0 0 -4zm-6 0l3 0 0 4 -3 0 0 -4zm-11 0l3 0 0 4 -3 0 0 -4zm-11 0l3 0 0 4 -3 0 0 -4zm28 -6l2 0 0 4 -2 0 0 -4zm-6 0l3 0 0 4 -3 0 0 -4zm-5 0l2 0 0 4 -2 0 0 -4zm-6 0l3 0 0 4 -3 0 0 -4zm-5 0l2 0 0 4 -2 0 0 -4zm-6 0l3 0 0 4 -3 0 0 -4zm28 -6l2 0 0 3 -2 0 0 -3zm-11 0l2 0 0 3 -2 0 0 -3zm-6 0l3 0 0 3 -3 0 0 -3zm-11 0l3 0 0 3 -3 0 0 -3zm28 -7l2 0 0 4 -2 0 0 -4zm-6 0l3 0 0 4 -3 0 0 -4zm-5 0l2 0 0 4 -2 0 0 -4zm-6 0l3 0 0 4 -3 0 0 -4zm-5 0l2 0 0 4 -2 0 0 -4zm-6 0l3 0 0 4 -3 0 0 -4z"/></g><text x="0" y="317" fill="#000000" font-size="5px" font-weight="bold" font-family="'Helvetica Neue', Helvetica, Arial-Unicode, Arial, Sans-serif">Created by abdul karim</text><text x="0" y="322" fill="#000000" font-size="5px" font-weight="bold" font-family="'Helvetica Neue', Helvetica, Arial-Unicode, Arial, Sans-serif">from the Noun Project</text></svg>