<svg xmlns="http://www.w3.org/2000/svg" xmlns:xlink="http://www.w3.org/1999/xlink" version="1.1" x="0px" y="0px" viewBox="0 0 100 125" enable-background="new 0 0 100 100" xml:space="preserve"><path d="M75.284,43.056c-1.563-3.424-0.046-7.458,3.376-9.024c3.418-1.555,7.458-0.046,9.007,3.377  c1.561,3.422,0.056,7.453-3.363,9.013C80.884,47.979,76.847,46.466,75.284,43.056z"/><path d="M98.646,33.767c-0.742-0.322-1.618,0.024-1.941,0.775c-4.676,10.887-12.553,19.225-22.51,24.353l2.17-4.477  c0.058-0.105,0.251-0.554,0.261-0.578c1.819-4.225-1.248-10.123-7.43-8.872l-16.579,4.886l-4.218-10.133  c-1.827-4.165-7.467-5.327-10.155-1.301L27.796,55.029c-1.18,1.876-0.614,4.351,1.261,5.53c0.664,0.418,1.4,0.614,2.129,0.614  c1.334,0,2.637-0.661,3.4-1.875l7.229-11.492l3.601,11.379c2.088,3.38,5.134,4.169,7.971,3.516L66.762,59l-1.71,3.53  c-4.955,1.432-10.263,2.194-15.832,2.194c-0.056,0-0.118,0-0.174,0c-23.018-0.064-38.744-13.44-45.79-25.938  c-0.401-0.712-1.297-0.964-2.015-0.562c-0.709,0.4-0.962,1.302-0.561,2.014c7.452,13.223,24.07,27.374,48.355,27.442  c0.062,0,0.123,0,0.184,0c4.93,0,9.652-0.586,14.143-1.662l-5.244,10.818c-0.8,1.65-0.11,3.639,1.54,4.436  c0.468,0.229,0.962,0.334,1.447,0.334c1.233,0,2.418-0.688,2.991-1.873l8.04-16.59c12.172-5.195,21.798-14.66,27.286-27.435  C99.746,34.958,99.398,34.088,98.646,33.767z"/><text x="0" y="115" fill="#000000" font-size="5px" font-weight="bold" font-family="'Helvetica Neue', Helvetica, Arial-Unicode, Arial, Sans-serif">Created by Luis Prado</text><text x="0" y="120" fill="#000000" font-size="5px" font-weight="bold" font-family="'Helvetica Neue', Helvetica, Arial-Unicode, Arial, Sans-serif">from the Noun Project</text></svg>