<svg xmlns="http://www.w3.org/2000/svg" xmlns:xlink="http://www.w3.org/1999/xlink" version="1.1" x="0px" y="0px" viewBox="0 0 283.46 354.325" enable-background="new 0 0 283.46 283.46" xml:space="preserve"><g><g><g><g><g><path d="M263.127,231.998H133.558l64.784-136.793L263.127,231.998z M136.24,230.721h124.206l-62.104-131.13L136.24,230.721z"/></g><g><path d="M264.988,233.065H131.694l0.694-1.464l65.954-139.263L264.988,233.065z M138.103,229.652h120.479l-60.24-127.195       L138.103,229.652z"/></g></g></g></g><g><g><g><g><path d="M165.004,231.998H34.072l65.466-118.68L165.004,231.998z M36.886,230.721h125.306L99.539,117.14L36.886,230.721z"/></g><g><path d="M166.985,233.065H32.093l67.446-122.269L166.985,233.065z M38.865,229.652h121.347L99.539,119.661L38.865,229.652z"/></g></g></g></g><g><g><g><g><polygon points="86.022,232.09 150.082,115.959 214.141,232.09      "/></g><g><path d="M216.122,233.156H84.043l66.039-119.718L216.122,233.156z M88.002,231.021h124.16l-62.08-112.541L88.002,231.021z"/></g></g></g></g><g><g><g><g><polygon points="151.826,232.09 197.726,148.272 243.625,232.09      "/></g><g><path d="M245.598,233.156h-95.745l47.873-87.421L245.598,233.156z M153.801,231.021h87.851l-43.926-80.213L153.801,231.021z"/></g></g></g></g><g><g><g><g><polygon points="15.104,232.09 59.422,154.069 103.74,232.09      "/></g><g><path d="M105.744,233.156H13.1l46.322-81.549L105.744,233.156z M17.109,231.021h84.626L59.422,156.53L17.109,231.021z"/></g></g></g></g><g><g><g><g><polygon points="218.734,232.09 243.625,178.202 268.515,232.09      "/></g><g><path d="M270.36,233.156H216.89l26.735-57.884L270.36,233.156z M220.58,231.021h46.088l-23.043-49.89L220.58,231.021z"/></g></g></g></g></g><text x="0" y="298.46" fill="#000000" font-size="5px" font-weight="bold" font-family="'Helvetica Neue', Helvetica, Arial-Unicode, Arial, Sans-serif">Created by Ashley van Dyck</text><text x="0" y="303.46" fill="#000000" font-size="5px" font-weight="bold" font-family="'Helvetica Neue', Helvetica, Arial-Unicode, Arial, Sans-serif">from the Noun Project</text></svg>