<svg xmlns="http://www.w3.org/2000/svg" xmlns:xlink="http://www.w3.org/1999/xlink" xml:space="preserve" version="1.1" style="shape-rendering:geometricPrecision;text-rendering:geometricPrecision;image-rendering:optimizeQuality;" viewBox="0 0 295 355" x="0px" y="0px" fill-rule="evenodd" clip-rule="evenodd"><defs><style type="text/css">
   
    .fil0 {fill:black}
    .fil1 {fill:black;fill-rule:nonzero}
   
  </style></defs><g><path class="fil0" d="M141 282l0 0 0 0 0 0zm-122 -12c12,-41 56,-56 95,-49 27,-38 44,-93 49,-138 -14,-13 -52,14 -63,46 -4,-30 11,-61 39,-59 -30,-14 -50,1 -88,37 17,-65 58,-80 95,-54 -15,-23 -21,-29 -68,-24 32,-31 66,-17 82,15 2,-19 -10,-36 -22,-44 22,10 28,15 33,39 2,-24 17,-32 32,-39 -12,8 -23,25 -22,44 15,-32 50,-46 82,-15 -47,-5 -53,1 -69,24 38,-26 79,-11 96,54 -39,-36 -58,-51 -88,-37 28,-2 42,29 39,59 -11,-33 -48,-61 -64,-46 -7,48 -13,104 -38,148 13,7 24,17 30,32 0,0 0,1 -1,1 -1,2 -2,3 -4,4 -3,2 -7,2 -11,0 -2,-1 -3,-2 -4,-4 -4,-6 -12,-6 -15,0 -1,2 -3,3 -4,4 -4,2 -8,2 -11,0 -2,-1 -4,-2 -5,-4 -3,-6 -11,-6 -14,0 -1,2 -3,3 -5,4 -3,2 -7,2 -11,0 -1,-1 -3,-2 -4,-4 -3,-6 -11,-6 -15,0 -1,2 -2,3 -4,4 -3,2 -7,2 -11,0 -2,-1 -3,-2 -4,-4 -3,-6 -11,-6 -15,0 -1,2 -2,3 -4,4 -2,2 -5,2 -8,2z"/><path class="fil1" d="M282 271c3,-5 -4,-11 -7,-5 -2,2 -4,4 -6,6 -5,3 -11,3 -15,0 -3,-2 -5,-4 -6,-6 -2,-3 -6,-3 -7,0 -2,2 -4,4 -6,6 -5,3 -11,3 -16,0 -2,-2 -4,-4 -5,-6 -2,-3 -6,-3 -8,0 -1,2 -3,4 -5,6 -5,3 -11,3 -16,0 -2,-2 -4,-4 -6,-6 -1,-3 -5,-3 -7,0 -1,2 -3,4 -6,6 -4,3 -10,3 -15,0 -2,-2 -4,-4 -6,-6 -2,-3 -6,-3 -7,0 -2,2 -4,4 -6,6 -5,3 -11,3 -16,0 -2,-2 -4,-4 -5,-6 -2,-3 -6,-3 -8,0 -1,2 -3,4 -5,6 -5,3 -11,3 -16,0 -2,-2 -4,-4 -5,-6 -2,-3 -6,-3 -8,0 -1,2 -3,4 -6,6 -4,3 -10,3 -15,0 -2,-2 -4,-4 -6,-6 -1,-3 -5,-3 -7,0 -2,2 -4,4 -6,6 -5,3 -10,3 -15,0 -3,-2 -5,-4 -6,-6 -3,-6 -10,0 -7,5 2,4 5,7 9,9 7,5 16,5 23,0 2,-1 4,-2 6,-4 1,2 3,3 5,4 7,5 16,5 24,0 1,-1 3,-2 5,-4 1,2 3,3 5,4 7,5 16,5 24,0 2,-1 3,-2 5,-4 2,2 3,3 5,4 8,5 17,5 24,0 2,-1 4,-2 5,-4 2,2 4,3 6,4 7,5 16,5 23,0 2,-1 4,-2 6,-4 1,2 3,3 5,4 7,5 16,5 24,0 2,-1 3,-2 5,-4 2,2 3,3 5,4 8,5 17,5 24,0 2,-1 4,-2 5,-4 2,2 4,3 5,4 8,5 17,5 24,0 4,-2 7,-5 9,-9z"/><path class="fil0" d="M248 137l-9 -8 -1 12 -11 -4 3 11 -12 0 6 10 -11 3 9 8 -9 7 11 3 -6 11 12 -1 -3 12 11 -5 1 12 9 -8 6 10 0 0 5 -10 9 8 2 -12 11 5 -3 -12 12 1 -7 -11 12 -3 -10 -7 10 -8 -12 -3 7 -10 -12 0 3 -11 -11 4 -2 -12 -9 8 -5 -10 0 0 -6 10zm6 5c-15,0 -27,12 -27,27 0,14 12,26 27,26 14,0 26,-12 26,-26 0,-15 -12,-27 -26,-27z"/></g><text x="0" y="299" fill="#000000" font-size="5px" font-weight="bold" font-family="'Helvetica Neue', Helvetica, Arial-Unicode, Arial, Sans-serif">Created by Chrystina Angeline</text><text x="0" y="304" fill="#000000" font-size="5px" font-weight="bold" font-family="'Helvetica Neue', Helvetica, Arial-Unicode, Arial, Sans-serif">from the Noun Project</text></svg>